HIERARCHY
ROOT Hips
{
	OFFSET 0.000000 0.000000 0.000000
	CHANNELS 6 Xposition Yposition Zposition Zrotation Yrotation Xrotation 
	JOINT LowerBack
	{
		OFFSET 0.000000 0.000000 0.000000
		CHANNELS 3 Zrotation Yrotation Xrotation
		JOINT Spine
		{
			OFFSET 0.028270 2.035590 -0.193380
			CHANNELS 3 Zrotation Yrotation Xrotation
			JOINT Spine1
			{
				OFFSET 0.056720 2.048850 -0.042750
				CHANNELS 3 Zrotation Yrotation Xrotation
				JOINT Neck
				{
					OFFSET 0.000000 0.000000 0.000000
					CHANNELS 3 Zrotation Yrotation Xrotation
					JOINT Neck1
					{
						OFFSET -0.054170 1.746240 0.172020
						CHANNELS 3 Zrotation Yrotation Xrotation
						JOINT Head
						{
							OFFSET 0.104070 1.761360 -0.123970
							CHANNELS 3 Zrotation Yrotation Xrotation
							End Site
							{
								OFFSET 0.000000 0.000000 0.000000
							}
						}
					}
				}
				JOINT LeftShoulder
				{
					OFFSET 0.000000 0.000000 0.000000
					CHANNELS 3 Zrotation Yrotation Xrotation
					JOINT LeftArm
					{
						OFFSET 3.362410 1.200890 -0.311210
						CHANNELS 3 Zrotation Yrotation Xrotation
						JOINT LeftForeArm
						{
							OFFSET 4.983000 -0.000000 -0.000000
							CHANNELS 3 Zrotation Yrotation Xrotation
							JOINT LeftHand
							{
								OFFSET 3.483560 -0.000000 -0.000000
								CHANNELS 3 Zrotation Yrotation Xrotation
								JOINT LeftFingerBase
								{
									OFFSET 0.000000 0.000000 0.000000
									CHANNELS 3 Zrotation Yrotation Xrotation
									JOINT LeftHandIndex1
									{
										OFFSET 0.715260 -0.000000 -0.000000
										CHANNELS 3 Zrotation Yrotation Xrotation
										End Site
										{
											OFFSET 0.000000 0.000000 0.000000
										}
									}
								}
								JOINT LThumb
								{
									OFFSET 0.000000 0.000000 0.000000
									CHANNELS 3 Zrotation Yrotation Xrotation
									End Site
									{
										OFFSET 0.000000 0.000000 0.000000
									}
								}
							}
						}
					}
				}
				JOINT RightShoulder
				{
					OFFSET 0.000000 0.000000 0.000000
					CHANNELS 3 Zrotation Yrotation Xrotation
					JOINT RightArm
					{
						OFFSET -3.136600 1.374050 -0.404650
						CHANNELS 3 Zrotation Yrotation Xrotation
						JOINT RightForeArm
						{
							OFFSET -5.241900 -0.000000 -0.000000
							CHANNELS 3 Zrotation Yrotation Xrotation
							JOINT RightHand
							{
								OFFSET -3.444170 -0.000000 -0.000000
								CHANNELS 3 Zrotation Yrotation Xrotation
								JOINT RightFingerBase
								{
									OFFSET 0.000000 0.000000 0.000000
									CHANNELS 3 Zrotation Yrotation Xrotation
									JOINT RightHandIndex1
									{
										OFFSET -0.622530 -0.000000 -0.000000
										CHANNELS 3 Zrotation Yrotation Xrotation
										End Site
										{
											OFFSET 0.000000 0.000000 0.000000
										}
									}
								}
								JOINT RThumb
								{
									OFFSET 0.000000 0.000000 0.000000
									CHANNELS 3 Zrotation Yrotation Xrotation
									End Site
									{
										OFFSET 0.000000 0.000000 0.000000
									}
								}
							}
						}
					}
				}
			}
		}
	}
}
}
MOTION
Frames: 7
Frame Time: 0.008333
7.368415 16.811807 0.860405 14.618004 56.239300 32.580151 3.921099 -2.617359 -5.535068 0.122638 -3.163603 -3.775301 -6.818033 -3.119313 0.510314 4.149402 -11.838673 -8.334960 -4.841223 -0.361921 -0.270025 0.000000 0.000000 0.000000 1.934672 9.048361 0.838054 -39.690847 -8.664752 2.975365 -179.111461 -75.855714 179.942907 8.111755 1.598171 0.091825 -0.296063 0.398620 -0.000000 0.000000 0.000000 0.000000 0.000000 0.000000 0.000000 15.039490 -7.238523 -0.366437 72.571796 2.259443 22.323900 0.646641 72.998490 -0.007014 -2.877427 3.297419 -0.090669 0.071493 -0.286900 0.000000 0.000000 0.000000 0.000000 0.000000 0.000000 0.000000 
7.534488 16.793713 0.959564 14.523638 56.193106 32.306752 4.034722 -2.636033 -5.354513 0.145797 -3.182822 -3.739905 -6.802268 -3.140730 0.514016 4.295991 -11.750509 -8.369501 -4.890913 -0.364897 -0.282808 0.000000 0.000000 0.000000 1.731798 9.138792 0.831551 -39.996706 -8.563743 2.729856 -179.151727 -76.259486 179.939625 8.689458 1.260958 0.071131 -0.306718 0.405302 -0.000000 0.000000 0.000000 0.000000 0.000000 0.000000 0.000000 15.498451 -7.208674 -0.304496 72.025842 2.827939 22.260869 0.696143 71.872365 -0.009204 -3.462800 2.962104 -0.098673 0.082576 -0.277144 0.000000 0.000000 0.000000 0.000000 0.000000 0.000000 0.000000 
7.694962 16.784728 1.061332 14.388359 56.182708 31.971782 4.107115 -2.660224 -5.121346 0.160842 -3.201438 -3.695775 -6.786836 -3.161861 0.511839 4.489115 -11.640240 -8.378080 -4.928767 -0.367064 -0.287481 0.000000 0.000000 0.000000 1.567316 9.200145 0.824721 -40.430668 -8.418259 2.636427 -179.201583 -76.800586 179.936155 9.303341 0.989899 0.052821 -0.317111 0.409132 -0.000000 0.000000 0.000000 0.000000 0.000000 0.000000 0.000000 15.947005 -7.169756 -0.243594 71.560972 3.442791 22.228629 0.744392 70.755200 -0.011063 -3.951871 2.573054 -0.098692 0.091587 -0.267010 0.000000 0.000000 0.000000 0.000000 0.000000 0.000000 0.000000 
7.850135 16.783960 1.166592 14.229996 56.189541 31.609923 4.124161 -2.685138 -4.860394 0.164695 -3.214875 -3.647423 -6.772543 -3.178099 0.505193 4.722729 -11.507484 -8.357160 -4.951112 -0.368237 -0.282704 0.000000 0.000000 0.000000 1.438647 9.235492 0.819512 -40.950559 -8.230319 2.702715 -179.259195 -77.483468 179.932814 9.911737 0.811896 0.039986 -0.326329 0.409295 -0.000000 0.000000 0.000000 0.000000 0.000000 0.000000 0.000000 16.362464 -7.115818 -0.188642 71.204577 4.067072 22.220915 0.789467 69.683765 -0.012573 -4.332976 2.137656 -0.091123 0.098388 -0.256806 0.000000 0.000000 0.000000 0.000000 0.000000 0.000000 0.000000 
8.000396 16.790160 1.276457 14.092240 56.195471 31.279042 4.060194 -2.708921 -4.599797 0.152332 -3.220733 -3.598949 -6.759431 -3.187023 0.498645 4.992098 -11.368340 -8.309422 -4.954386 -0.368207 -0.268875 0.000000 0.000000 0.000000 1.344118 9.246124 0.816368 -41.509431 -7.998833 2.928117 -179.322273 -78.303678 179.929930 10.470176 0.751832 0.036815 -0.333467 0.405144 -0.000000 0.000000 0.000000 0.000000 0.000000 0.000000 0.000000 16.728091 -7.058188 -0.143470 70.975670 4.682956 22.253306 0.830161 68.687772 -0.013747 -4.607413 1.670086 -0.077362 0.103179 -0.246859 0.000000 0.000000 0.000000 0.000000 0.000000 0.000000 0.000000 
8.146312 16.802131 1.391316 13.994823 56.188252 31.008295 3.908732 -2.728629 -4.358097 0.122419 -3.216620 -3.554039 -6.747730 -3.186227 0.491476 5.286731 -11.215994 -8.232522 -4.936742 -0.366911 -0.245348 0.000000 0.000000 0.000000 1.277400 9.236624 0.818967 -42.068361 -7.729125 3.307494 -179.388174 -79.256633 179.927825 10.933339 0.829254 0.046700 -0.337864 0.396406 -0.000000 0.000000 0.000000 0.000000 0.000000 0.000000 0.000000 17.022064 -6.983425 -0.112218 70.889572 5.250317 22.313015 0.864375 67.806955 -0.014573 -4.769746 1.190431 -0.059306 0.105890 -0.237584 -0.000000 0.000000 0.000000 0.000000 0.000000 0.000000 0.000000 
8.288568 16.818682 1.511527 13.966100 56.158668 30.836698 3.661031 -2.743373 -4.155944 0.073483 -3.202016 -3.515872 -6.736953 -3.175187 0.486263 5.598579 -11.061222 -8.131416 -4.896997 -0.364285 -0.213530 0.000000 0.000000 0.000000 1.229519 9.210136 0.829034 -42.590300 -7.423179 3.828061 -179.454393 -80.325822 179.926731 11.260512 1.056649 0.072342 -0.339047 0.383048 -0.000000 0.000000 0.000000 0.000000 0.000000 0.000000 0.000000 17.231968 -6.897311 -0.096671 70.947123 5.756495 22.413132 0.891291 67.067264 -0.015063 -4.827405 0.722740 -0.039551 0.106784 -0.229339 -0.000000 0.000000 0.000000 0.000000 0.000000 0.000000 0.000000 
